<?xml version="1.0" encoding="UTF-8" standalone="no"?>
<!-- Generator: Adobe Illustrator 18.0.0, SVG Export Plug-In . SVG Version: 6.00 Build 0)  -->

<svg
   xmlns:dc="http://purl.org/dc/elements/1.1/"
   xmlns:cc="http://creativecommons.org/ns#"
   xmlns:rdf="http://www.w3.org/1999/02/22-rdf-syntax-ns#"
   xmlns:svg="http://www.w3.org/2000/svg"
   xmlns="http://www.w3.org/2000/svg"
   xmlns:sodipodi="http://sodipodi.sourceforge.net/DTD/sodipodi-0.dtd"
   xmlns:inkscape="http://www.inkscape.org/namespaces/inkscape"
   version="1.1"
   id="co_x5F_transport"
   x="0px"
   y="0px"
   viewBox="0 230.9 108 108"
   enable-background="new 0 230.9 612 321.7"
   xml:space="preserve"
   inkscape:version="0.91 r13725"
   sodipodi:docname="logo.svg"
   width="108"
   height="108"><metadata
     id="metadata13"><rdf:RDF><cc:Work
         rdf:about=""><dc:format>image/svg+xml</dc:format><dc:type
           rdf:resource="http://purl.org/dc/dcmitype/StillImage" /><dc:title></dc:title></cc:Work></rdf:RDF></metadata><defs
     id="defs11" /><sodipodi:namedview
     pagecolor="#ffffff"
     bordercolor="#666666"
     borderopacity="1"
     objecttolerance="10"
     gridtolerance="10"
     guidetolerance="10"
     inkscape:pageopacity="0"
     inkscape:pageshadow="2"
     inkscape:window-width="1189"
     inkscape:window-height="792"
     id="namedview9"
     showgrid="false"
     inkscape:zoom="5.0652878"
     inkscape:cx="69.505007"
     inkscape:cy="56.451619"
     inkscape:window-x="377"
     inkscape:window-y="41"
     inkscape:window-maximized="0"
     inkscape:current-layer="co_x5F_transport" /><path
     d="m 67.027232,303.94624 -0.598056,0 4.340174,7.46715 c 0.44427,0.59806 -0.153785,1.4866 -0.888539,1.4866 l -4.340175,0 c -1.349896,0 -1.349896,-2.99028 -2.990277,-2.99028 l -17.924578,0 c -1.640381,0 -1.486595,2.99028 -2.990278,2.99028 l -4.186388,0 c -0.751842,0 -1.196111,-0.75184 -0.88854,-1.4866 l 4.340174,-7.46715 -0.751841,0 c -2.546008,0 -4.476873,-1.94795 -4.476873,-4.47687 l 0,-31.38937 c 0,-2.54601 1.947953,-4.47687 4.476873,-4.47687 l 6.271039,0 c 0.598056,-1.79417 2.238437,-2.99028 4.186389,-2.99028 l 5.980555,0 c 1.947952,0 3.588333,1.19611 4.186389,2.99028 l 6.271039,0 c 2.546008,0 4.476873,1.94795 4.476873,4.47687 l 0,31.37228 c -0.01709,2.54601 -1.947953,4.49396 -4.49396,4.49396 z m -20.914856,2.99028 14.9343,0 c 1.640381,0 0.153786,-2.99028 -1.486595,-2.99028 l -11.944023,0 c -1.657468,0 -3.144063,2.99028 -1.503682,2.99028 z m -2.990278,-10.45743 c 1.640381,0 2.990278,-1.34989 2.990278,-2.99027 0,-1.64038 -1.349897,-2.99028 -2.990278,-2.99028 -1.64038,0 -2.990277,1.3499 -2.990277,2.99028 0,1.64038 1.349897,2.99027 2.990277,2.99027 z m 5.980555,-23.90513 -5.980555,0 c -1.64038,0 -2.990277,1.3499 -2.990277,2.99028 l 0,8.97083 c 0,1.64038 1.349897,2.99028 2.990277,2.99028 l 5.980555,0 c 1.640381,0 2.990278,-1.3499 2.990278,-2.99028 l 0,-8.97083 c 0,-1.65747 -1.349897,-2.99028 -2.990278,-2.99028 z m 4.476873,-8.97083 c -1.640381,0 -2.990277,1.34989 -2.990277,2.99028 0,1.64038 1.349896,2.99027 2.990277,2.99027 1.640381,0 2.990278,-1.34989 2.990278,-2.99027 0,-1.64039 -1.349897,-2.99028 -2.990278,-2.99028 z m 13.447706,11.96111 c 0,-1.64038 -1.349897,-2.99028 -2.990278,-2.99028 l -5.980555,0 c -1.640381,0 -2.990278,1.3499 -2.990278,2.99028 l 0,8.97083 c 0,1.64038 1.349897,2.99028 2.990278,2.99028 l 5.980555,0 c 1.640381,0 2.990278,-1.3499 2.990278,-2.99028 l 0,-8.97083 z m -2.990278,14.9343 c -1.640381,0 -2.990278,1.3499 -2.990278,2.99028 0,1.64038 1.349897,2.99027 2.990278,2.99027 1.640381,0 2.990278,-1.34989 2.990278,-2.99027 0,-1.64038 -1.349897,-2.99028 -2.990278,-2.99028 z"
     id="path3"
     inkscape:connector-curvature="0"
     style="fill:#ffffff" /><path
     d="m 104.82434,303.1944 c -0.29048,0.44427 -0.75184,0.75184 -1.4866,0.75184 l -9.107526,0 0,4.92115 c 0,0.59805 -0.44427,1.04232 -1.042326,1.04232 l -4.032602,0 c -0.598056,0 -1.042326,-0.44427 -1.042326,-1.04232 l 0,-4.93823 -9.107531,0 c -0.598055,0 -1.042325,-0.29049 -1.486595,-0.75184 -0.290484,-0.44427 -0.290484,-1.04233 0,-1.64038 l 5.826769,-11.05549 -2.546007,0 c -0.598056,0 -1.196111,-0.29048 -1.486595,-0.88854 -0.290485,-0.59805 -0.290485,-1.19611 0,-1.64038 l 6.117253,-9.56889 -1.042325,0 c -0.598056,0 -1.196111,-0.29048 -1.486595,-0.88854 -0.290484,-0.59805 -0.290484,-1.19611 0,-1.64038 l 6.869094,-10.61121 c 0.290485,-0.44427 0.598056,-0.59806 1.042326,-0.59806 0.44427,0 0.888539,0.15379 1.042325,0.59806 l 6.869091,10.61121 c 0.29049,0.44427 0.29049,1.19611 0,1.64038 -0.29048,0.59806 -0.88854,0.88854 -1.48659,0.88854 l -1.04233,0 6.11726,9.56889 c 0.29048,0.44427 0.29048,1.19611 0,1.64038 -0.29049,0.59806 -0.88854,0.88854 -1.4866,0.88854 l -2.54601,0 5.82677,11.05549 c 1.02524,0.46135 1.02524,1.05941 0.71767,1.65746 z"
     id="path5"
     inkscape:connector-curvature="0"
     style="fill:#ffffff" /><path
     d="m 30.665456,303.1944 c -0.290484,0.44427 -0.751841,0.75184 -1.486595,0.75184 l -9.107531,0 0,4.92115 c 0,0.59805 -0.44427,1.04232 -1.042325,1.04232 l -4.04969,0 c -0.598056,0 -1.042326,-0.44427 -1.042326,-1.04232 l 0,-4.93823 -9.1075308,0 c -0.5980555,0 -1.0423253,-0.29049 -1.4865951,-0.75184 -0.2904841,-0.44427 -0.2904841,-1.04233 0,-1.64038 l 5.8267699,-11.05549 -2.563096,0 c -0.598055,0 -1.1961106,-0.29048 -1.4865947,-0.88854 -0.2904841,-0.59805 -0.2904841,-1.19611 0,-1.64038 l 6.1172537,-9.56889 -1.042325,0 c -0.598056,0 -1.196111,-0.29048 -1.486596,-0.88854 -0.290484,-0.59805 -0.290484,-1.19611 0,-1.64038 l 6.869095,-10.61121 c 0.290484,-0.44427 0.598056,-0.59806 1.042325,-0.59806 0.44427,0 0.88854,0.15379 1.042326,0.59806 l 6.869095,10.61121 c 0.290484,0.44427 0.290484,1.19611 0,1.64038 -0.290485,0.59806 -0.88854,0.88854 -1.486596,0.88854 l -1.042325,0 6.117254,9.56889 c 0.290484,0.44427 0.290484,1.19611 0,1.64038 -0.290484,0.59806 -0.88854,0.88854 -1.486596,0.88854 l -2.546007,0 5.826769,11.05549 c 1.059413,0.46135 1.059413,1.05941 0.751841,1.65746 z"
     id="path7"
     inkscape:connector-curvature="0"
     style="fill:#ffffff" /></svg>
