<?xml version="1.0" encoding="iso-8859-1"?>
<!-- Generator: Adobe Illustrator 16.0.2, SVG Export Plug-In . SVG Version: 6.00 Build 0)  -->
<!DOCTYPE svg PUBLIC "-//W3C//DTD SVG 1.1//EN" "http://www.w3.org/Graphics/SVG/1.1/DTD/svg11.dtd">
<svg version="1.1" id="co_x5F_player" xmlns="http://www.w3.org/2000/svg" xmlns:xlink="http://www.w3.org/1999/xlink" x="0px"
	 y="0px" width="40px" height="40px" viewBox="0 0 40 40" style="enable-background:new 0 0 40 40;" xml:space="preserve">
<path fill="#0D47A1" style="fill-rule:evenodd;clip-rule:evenodd;" d="M29.079,37.006H10.932c-4.357,0-7.922-3.565-7.922-7.923V10.936
	c0-4.358,3.565-7.923,7.922-7.923h18.147c4.357,0,7.923,3.565,7.923,7.923v18.147C37.002,33.441,33.437,37.006,29.079,37.006z
	 M25.755,18.281l-6.938-6.931c-0.966-0.965-2.545-0.965-3.512,0c-0.965,0.965-0.964,2.545,0,3.511l5.179,5.178l-5.179,5.178
	c-0.964,0.966-0.965,2.546,0,3.512c0.966,0.965,2.546,0.965,3.511,0c0,0,6.084-6.078,6.938-6.93
	C26.923,20.63,26.937,19.462,25.755,18.281z"/>
</svg>
